<svg width="423" height="160" viewBox="0 0 423 160" fill="none" xmlns="http://www.w3.org/2000/svg">
<path d="M45.1875 74.625C45.0625 76.7917 44.7708 78.9792 44.3125 81.1875C43.8542 83.3542 43.125 85.3125 42.125 87.0625C41.1667 88.8125 39.8958 90.25 38.3125 91.375C36.7292 92.4583 34.7708 93 32.4375 93C30.9792 93 29.6875 92.7708 28.5625 92.3125C27.4792 91.8958 26.5208 91.3333 25.6875 90.625C24.8958 89.875 24.2292 89.0417 23.6875 88.125C23.1458 87.1667 22.6875 86.1667 22.3125 85.125C20.8542 87.5417 19.125 89.4167 17.125 90.75C15.1667 92.0417 13.2083 92.6875 11.25 92.6875C9.66667 92.6875 8.22917 92.3958 6.9375 91.8125C5.6875 91.2292 4.60417 90.4167 3.6875 89.375C2.8125 88.2917 2.125 87 1.625 85.5C1.125 84 0.875 82.3125 0.875 80.4375C0.875 77.3125 1.14583 74.625 1.6875 72.375C2.27083 70.0833 2.89583 68.2083 3.5625 66.75C4.27083 65.2917 4.91667 64.2083 5.5 63.5C6.08333 62.75 6.375 62.375 6.375 62.375C6.58333 62.125 6.83333 61.9375 7.125 61.8125C7.45833 61.6875 7.79167 61.625 8.125 61.625C8.79167 61.625 9.33333 61.875 9.75 62.375C10.2083 62.8333 10.4375 63.375 10.4375 64C10.4375 64.4583 10.2708 64.9583 9.9375 65.5C9.77083 65.75 9.4375 66.2292 8.9375 66.9375C8.47917 67.6458 8 68.6042 7.5 69.8125C7 71.0208 6.54167 72.5 6.125 74.25C5.75 76 5.5625 78.0625 5.5625 80.4375C5.5625 82.8958 6.0625 84.7708 7.0625 86.0625C8.0625 87.3125 9.45833 87.9375 11.25 87.9375C12.125 87.9375 13.0833 87.7083 14.125 87.25C15.1667 86.75 16.1458 86 17.0625 85C17.9792 84 18.7708 82.7292 19.4375 81.1875C20.1042 79.6458 20.5208 77.8333 20.6875 75.75L21.5 65C21.5417 64.375 21.7917 63.8542 22.25 63.4375C22.75 63.0208 23.3125 62.8125 23.9375 62.8125C24.6458 62.8125 25.2083 63.0833 25.625 63.625C26.0417 64.125 26.25 64.7083 26.25 65.375L25.5625 75.6875C25.4375 77.8958 25.5 79.7917 25.75 81.375C26.0417 82.9583 26.5 84.2708 27.125 85.3125C27.75 86.3125 28.5208 87.0625 29.4375 87.5625C30.3542 88.0208 31.375 88.25 32.5 88.25C34 88.25 35.2708 87.8125 36.3125 86.9375C37.3542 86.0625 38.1875 84.875 38.8125 83.375C39.4375 81.875 39.875 80.1458 40.125 78.1875C40.4167 76.1875 40.5625 74.0833 40.5625 71.875C40.5625 69.25 40.4167 67.0625 40.125 65.3125C39.8333 63.5625 39.6875 62.3958 39.6875 61.8125C39.6875 61.1875 39.9167 60.6458 40.375 60.1875C40.8333 59.6875 41.3958 59.4375 42.0625 59.4375C42.6458 59.4375 43.1458 59.625 43.5625 60C43.9792 60.3333 44.25 60.7917 44.375 61.375C44.4167 61.5417 44.5417 62.0208 44.75 62.8125C44.9583 63.6042 45.25 64.5625 45.625 65.6875C46 66.7708 46.4792 67.9375 47.0625 69.1875C47.6875 70.3958 48.4167 71.5208 49.25 72.5625C50.125 73.6042 51.1042 74.4792 52.1875 75.1875C53.3125 75.8542 54.5833 76.1875 56 76.1875C56.7917 76.1875 57.4583 76.0417 58 75.75C58.5833 75.4167 59.0625 75.0417 59.4375 74.625C59.8125 74.2083 60.0833 73.8125 60.25 73.4375C60.4583 73.0625 60.5833 72.8333 60.625 72.75C60.8333 72.2917 61.125 71.9375 61.5 71.6875C61.9167 71.3958 62.3542 71.25 62.8125 71.25C63.5208 71.25 64.0833 71.5208 64.5 72.0625C64.9583 72.5625 65.1875 73.1042 65.1875 73.6875C65.1875 74.1875 64.9583 74.8542 64.5 75.6875C64.0833 76.5208 63.4792 77.3333 62.6875 78.125C61.8958 78.875 60.9167 79.5417 59.75 80.125C58.625 80.6667 57.375 80.9375 56 80.9375C54.7917 80.9375 53.6667 80.7708 52.625 80.4375C51.5833 80.0625 50.6042 79.5833 49.6875 79C48.8125 78.4167 48 77.75 47.25 77C46.5 76.25 45.8125 75.4583 45.1875 74.625ZM109.062 74.5625C108.896 74.8958 108.542 75.6042 108 76.6875C107.5 77.7292 106.833 78.9375 106 80.3125C105.208 81.6875 104.271 83.125 103.188 84.625C102.104 86.125 100.896 87.5 99.5625 88.75C98.2292 90 96.7917 91.0417 95.25 91.875C93.7083 92.6667 92.0833 93.0625 90.375 93.0625C87.9583 93.0625 85.9167 92.2917 84.25 90.75C82.625 89.2083 81.4375 87.2708 80.6875 84.9375C79.2708 87.3125 77.5833 89.2083 75.625 90.625C73.6667 92 71.7083 92.6875 69.75 92.6875C68.2083 92.6875 66.8125 92.4167 65.5625 91.875C64.3125 91.2917 63.25 90.5 62.375 89.5C61.5 88.4583 60.8125 87.25 60.3125 85.875C59.8542 84.5 59.625 83 59.625 81.375C59.625 78.125 60.1667 75.2708 61.25 72.8125C62.375 70.3125 63.7917 68.2292 65.5 66.5625C67.2083 64.8958 69.0833 63.6458 71.125 62.8125C73.2083 61.9792 75.2083 61.5625 77.125 61.5625C78.4167 61.5625 79.6042 61.75 80.6875 62.125C81.7708 62.4583 82.6875 62.8333 83.4375 63.25C84.2292 63.6667 84.8333 64.0625 85.25 64.4375C85.6667 64.7708 85.8958 64.9583 85.9375 65C86.3958 65.5417 86.625 66.1042 86.625 66.6875C86.625 67.3125 86.3958 67.875 85.9375 68.375C85.4792 68.8333 84.9375 69.0625 84.3125 69.0625C83.6458 69.0625 83.0833 68.8333 82.625 68.375C82.5417 68.2917 82.3542 68.1458 82.0625 67.9375C81.7708 67.6875 81.375 67.4375 80.875 67.1875C80.375 66.9375 79.7708 66.7292 79.0625 66.5625C78.3958 66.3542 77.625 66.25 76.75 66.25C75.4583 66.25 74.0833 66.5417 72.625 67.125C71.1667 67.7083 69.8333 68.625 68.625 69.875C67.4167 71.0833 66.3958 72.625 65.5625 74.5C64.7708 76.3333 64.375 78.5208 64.375 81.0625C64.375 81.8542 64.4583 82.6667 64.625 83.5C64.7917 84.2917 65.0833 85.0208 65.5 85.6875C65.9167 86.3542 66.4792 86.8958 67.1875 87.3125C67.8958 87.7292 68.7708 87.9375 69.8125 87.9375C70.5625 87.9375 71.4167 87.6875 72.375 87.1875C73.375 86.6875 74.3125 85.9167 75.1875 84.875C76.1042 83.8333 76.9167 82.5208 77.625 80.9375C78.375 79.3542 78.8958 77.4792 79.1875 75.3125C79.2708 74.7292 79.5417 74.25 80 73.875C80.4583 73.4583 81 73.25 81.625 73.25C82.2083 73.25 82.7083 73.4792 83.125 73.9375C83.5833 74.3958 83.8333 74.9167 83.875 75.5C83.9167 76.2917 84 77.4167 84.125 78.875C84.25 80.2917 84.5208 81.7083 84.9375 83.125C85.3958 84.5417 86.0625 85.7708 86.9375 86.8125C87.8125 87.8542 89.0208 88.375 90.5625 88.375C91.5625 88.375 92.5417 88.1042 93.5 87.5625C94.5 87.0208 95.4583 86.3125 96.375 85.4375C97.3333 84.5208 98.2292 83.5 99.0625 82.375C99.9375 81.2083 100.729 80.0417 101.438 78.875C102.146 77.7083 102.771 76.5833 103.312 75.5C103.854 74.4167 104.312 73.4792 104.688 72.6875C104.896 72.2292 105.188 71.875 105.562 71.625C105.979 71.375 106.417 71.25 106.875 71.25C107.583 71.25 108.146 71.5208 108.562 72.0625C109.021 72.5625 109.25 73.1042 109.25 73.6875C109.25 73.9792 109.188 74.2708 109.062 74.5625ZM130.062 72.3125C129.438 75.2292 128.542 77.9583 127.375 80.5C126.208 83 124.958 85.1875 123.625 87.0625C122.333 88.9375 121.021 90.4167 119.688 91.5C118.354 92.5833 117.208 93.1667 116.25 93.25C115.167 93.25 113.958 92.7083 112.625 91.625C111.333 90.5417 110.083 89.0417 108.875 87.125C107.708 85.1667 106.729 82.8542 105.938 80.1875C105.146 77.5208 104.75 74.625 104.75 71.5C104.75 68.75 104.979 66.6667 105.438 65.25C105.938 63.8333 106.25 63.0208 106.375 62.8125C106.583 62.4375 106.854 62.1458 107.188 61.9375C107.562 61.7292 107.979 61.625 108.438 61.625C109.146 61.625 109.708 61.875 110.125 62.375C110.542 62.8333 110.75 63.3542 110.75 63.9375C110.75 64.3542 110.667 64.7083 110.5 65C110.458 65.0833 110.271 65.6458 109.938 66.6875C109.604 67.7292 109.438 69.2917 109.438 71.375C109.438 73.8333 109.688 76.1042 110.188 78.1875C110.688 80.2708 111.292 82.0625 112 83.5625C112.708 85.0625 113.438 86.25 114.188 87.125C114.979 87.9583 115.625 88.375 116.125 88.375C116.458 88.375 116.938 88.0625 117.562 87.4375C118.229 86.8125 118.917 85.9583 119.625 84.875C120.375 83.7917 121.125 82.5 121.875 81C122.667 79.5 123.375 77.875 124 76.125C124.667 74.3333 125.188 72.4583 125.562 70.5C125.979 68.5 126.188 66.4792 126.188 64.4375C126.188 64.0208 126.167 63.625 126.125 63.25C126.125 62.8333 126.125 62.4167 126.125 62C126.125 61.2917 126.333 60.7083 126.75 60.25C127.208 59.75 127.792 59.5 128.5 59.5C129.042 59.5 129.521 59.6667 129.938 60C130.396 60.3333 130.688 60.7917 130.812 61.375C130.812 61.3333 130.896 61.6667 131.062 62.375C131.229 63.0833 131.5 64 131.875 65.125C132.292 66.2083 132.792 67.3958 133.375 68.6875C134 69.9792 134.729 71.1875 135.562 72.3125C136.438 73.3958 137.438 74.3125 138.562 75.0625C139.688 75.8125 140.979 76.1875 142.438 76.1875C143.229 76.1875 143.917 76.0208 144.5 75.6875C145.083 75.3542 145.562 74.9792 145.938 74.5625C146.312 74.1458 146.583 73.75 146.75 73.375C146.958 73 147.062 72.7917 147.062 72.75C147.229 72.2917 147.5 71.9375 147.875 71.6875C148.292 71.3958 148.75 71.25 149.25 71.25C149.917 71.25 150.479 71.5 150.938 72C151.396 72.4583 151.625 73 151.625 73.625C151.625 73.9167 151.562 74.2083 151.438 74.5C151.188 75.0833 150.812 75.75 150.312 76.5C149.854 77.25 149.25 77.9583 148.5 78.625C147.75 79.2917 146.854 79.8542 145.812 80.3125C144.812 80.7292 143.688 80.9375 142.438 80.9375C140.979 80.9375 139.625 80.6875 138.375 80.1875C137.125 79.6458 135.979 78.9792 134.938 78.1875C133.938 77.3542 133.021 76.4375 132.188 75.4375C131.354 74.3958 130.646 73.3542 130.062 72.3125ZM154.625 85.125C155.5 86.3333 156.625 87.3125 158 88.0625C159.375 88.7708 161.062 89.125 163.062 89.125C165.104 89.125 166.958 88.6458 168.625 87.6875C170.292 86.6875 171.812 85.3958 173.188 83.8125C174.562 82.2292 175.792 80.4583 176.875 78.5C177.958 76.5417 178.938 74.5833 179.812 72.625C180.021 72.1667 180.312 71.8333 180.688 71.625C181.062 71.375 181.479 71.25 181.938 71.25C182.646 71.25 183.208 71.5 183.625 72C184.083 72.5 184.312 73.0417 184.312 73.625C184.312 73.8333 184.292 74.0208 184.25 74.1875C184.208 74.3125 184.146 74.4583 184.062 74.625C181.188 80.9583 178.042 85.7292 174.625 88.9375C171.25 92.1458 167.417 93.7917 163.125 93.875C160.375 93.875 158 93.3333 156 92.25C154 91.2083 152.354 89.8542 151.062 88.1875C149.771 86.4792 148.812 84.5625 148.188 82.4375C147.562 80.3125 147.25 78.1875 147.25 76.0625C147.25 73.9375 147.5 71.9792 148 70.1875C148.542 68.3958 149.292 66.8333 150.25 65.5C151.25 64.1667 152.417 63.125 153.75 62.375C155.125 61.625 156.625 61.25 158.25 61.25C159.208 61.25 160.146 61.4583 161.062 61.875C162.021 62.25 162.875 62.8125 163.625 63.5625C164.375 64.2708 164.979 65.1458 165.438 66.1875C165.896 67.2292 166.125 68.4167 166.125 69.75C166.125 71.4583 165.833 73.0625 165.25 74.5625C164.667 76.0625 163.854 77.4583 162.812 78.75C161.812 80.0417 160.604 81.2292 159.188 82.3125C157.771 83.3958 156.25 84.3333 154.625 85.125ZM152.75 81.0625C154.042 80.5208 155.208 79.8333 156.25 79C157.333 78.1667 158.25 77.25 159 76.25C159.75 75.25 160.333 74.2083 160.75 73.125C161.167 72 161.375 70.875 161.375 69.75C161.375 68.5 161.062 67.5625 160.438 66.9375C159.812 66.2708 159.083 65.9375 158.25 65.9375C157.125 65.9375 156.167 66.25 155.375 66.875C154.583 67.5 153.938 68.3125 153.438 69.3125C152.938 70.3125 152.562 71.4375 152.312 72.6875C152.104 73.8958 152 75.1042 152 76.3125C152 77.0625 152.062 77.8542 152.188 78.6875C152.354 79.5208 152.542 80.3125 152.75 81.0625ZM215.438 74.6875C214.979 75.6458 214.396 76.7917 213.688 78.125C213.021 79.4167 212.25 80.7708 211.375 82.1875C210.5 83.6042 209.521 85.0208 208.438 86.4375C207.354 87.8125 206.167 89.0625 204.875 90.1875C203.625 91.2708 202.271 92.1458 200.812 92.8125C199.396 93.5208 197.875 93.875 196.25 93.875C193.75 93.875 191.604 93.1042 189.812 91.5625C188.021 90.0208 186.5 88 185.25 85.5C184 83 182.979 80.1667 182.188 77C181.438 73.7917 180.854 70.5417 180.438 67.25C180.021 63.9167 179.729 60.6875 179.562 57.5625C179.438 54.4375 179.375 51.6667 179.375 49.25C179.375 45.75 179.479 42.125 179.688 38.375C179.938 34.625 180.312 30.9583 180.812 27.375C181.312 23.7917 181.938 20.3958 182.688 17.1875C183.479 13.9792 184.396 11.1667 185.438 8.75C186.521 6.33333 187.75 4.41667 189.125 3C190.5 1.58333 192.062 0.875 193.812 0.875C195.188 0.875 196.417 1.20833 197.5 1.875C198.625 2.5 199.562 3.54167 200.312 5C201.062 6.45833 201.646 8.35417 202.062 10.6875C202.479 13.0208 202.688 15.875 202.688 19.25C202.688 23.4167 202.25 27.7292 201.375 32.1875C200.5 36.6042 199.312 41.0625 197.812 45.5625C196.312 50.0625 194.542 54.5625 192.5 59.0625C190.458 63.5208 188.271 67.875 185.938 72.125C186.979 77.4167 188.375 81.5833 190.125 84.625C191.875 87.625 193.979 89.125 196.438 89.125C198.104 89.125 199.708 88.4792 201.25 87.1875C202.792 85.8542 204.208 84.2917 205.5 82.5C206.792 80.7083 207.917 78.8958 208.875 77.0625C209.875 75.1875 210.646 73.6875 211.188 72.5625C211.396 72.1458 211.688 71.8333 212.062 71.625C212.438 71.375 212.854 71.25 213.312 71.25C214.021 71.25 214.583 71.5 215 72C215.458 72.5 215.688 73.0625 215.688 73.6875C215.688 73.9375 215.604 74.2708 215.438 74.6875ZM184.125 49.5625C184.125 52.2292 184.188 54.7917 184.312 57.25C184.438 59.7083 184.604 62.0625 184.812 64.3125C186.562 60.9375 188.229 57.3542 189.812 53.5625C191.396 49.7292 192.792 45.875 194 42C195.208 38.0833 196.167 34.2083 196.875 30.375C197.625 26.5 198 22.8125 198 19.3125C198 14.3958 197.604 10.875 196.812 8.75C196.021 6.625 194.958 5.5625 193.625 5.5625C192.75 5.5625 191.896 6.16667 191.062 7.375C190.271 8.58333 189.521 10.2292 188.812 12.3125C188.104 14.3958 187.458 16.8542 186.875 19.6875C186.292 22.5208 185.792 25.5625 185.375 28.8125C185 32.0625 184.688 35.4583 184.438 39C184.229 42.5417 184.125 46.0625 184.125 49.5625ZM218.75 85.125C219.625 86.3333 220.75 87.3125 222.125 88.0625C223.5 88.7708 225.188 89.125 227.188 89.125C229.229 89.125 231.083 88.6458 232.75 87.6875C234.417 86.6875 235.938 85.3958 237.312 83.8125C238.688 82.2292 239.917 80.4583 241 78.5C242.083 76.5417 243.062 74.5833 243.938 72.625C244.146 72.1667 244.438 71.8333 244.812 71.625C245.188 71.375 245.604 71.25 246.062 71.25C246.771 71.25 247.333 71.5 247.75 72C248.208 72.5 248.438 73.0417 248.438 73.625C248.438 73.8333 248.417 74.0208 248.375 74.1875C248.333 74.3125 248.271 74.4583 248.188 74.625C245.312 80.9583 242.167 85.7292 238.75 88.9375C235.375 92.1458 231.542 93.7917 227.25 93.875C224.5 93.875 222.125 93.3333 220.125 92.25C218.125 91.2083 216.479 89.8542 215.188 88.1875C213.896 86.4792 212.938 84.5625 212.312 82.4375C211.688 80.3125 211.375 78.1875 211.375 76.0625C211.375 73.9375 211.625 71.9792 212.125 70.1875C212.667 68.3958 213.417 66.8333 214.375 65.5C215.375 64.1667 216.542 63.125 217.875 62.375C219.25 61.625 220.75 61.25 222.375 61.25C223.333 61.25 224.271 61.4583 225.188 61.875C226.146 62.25 227 62.8125 227.75 63.5625C228.5 64.2708 229.104 65.1458 229.562 66.1875C230.021 67.2292 230.25 68.4167 230.25 69.75C230.25 71.4583 229.958 73.0625 229.375 74.5625C228.792 76.0625 227.979 77.4583 226.938 78.75C225.938 80.0417 224.729 81.2292 223.312 82.3125C221.896 83.3958 220.375 84.3333 218.75 85.125ZM216.875 81.0625C218.167 80.5208 219.333 79.8333 220.375 79C221.458 78.1667 222.375 77.25 223.125 76.25C223.875 75.25 224.458 74.2083 224.875 73.125C225.292 72 225.5 70.875 225.5 69.75C225.5 68.5 225.188 67.5625 224.562 66.9375C223.938 66.2708 223.208 65.9375 222.375 65.9375C221.25 65.9375 220.292 66.25 219.5 66.875C218.708 67.5 218.062 68.3125 217.562 69.3125C217.062 70.3125 216.688 71.4375 216.438 72.6875C216.229 73.8958 216.125 75.1042 216.125 76.3125C216.125 77.0625 216.188 77.8542 216.312 78.6875C216.479 79.5208 216.667 80.3125 216.875 81.0625ZM257.875 86.375C258.542 85 259.312 83.5 260.188 81.875C261.062 80.2083 262 78.5417 263 76.875C264 75.1667 265.042 73.4792 266.125 71.8125C267.25 70.1458 268.417 68.5625 269.625 67.0625C270.833 65.6042 272.042 64.5625 273.25 63.9375C274.5 63.2708 275.667 62.9375 276.75 62.9375C278.917 62.9375 280.521 63.7292 281.562 65.3125C282.604 66.8958 283.125 68.8542 283.125 71.1875C283.125 71.7292 283.083 72.3958 283 73.1875C282.958 73.9375 282.896 74.75 282.812 75.625C282.771 76.5 282.708 77.3958 282.625 78.3125C282.583 79.1875 282.562 80.0208 282.562 80.8125C282.562 81.8125 282.604 82.7708 282.688 83.6875C282.812 84.6042 283.021 85.4167 283.312 86.125C283.604 86.7917 284.021 87.3333 284.562 87.75C285.104 88.125 285.812 88.3125 286.688 88.3125C288.271 88.3125 289.812 87.7083 291.312 86.5C292.812 85.25 294.188 83.7917 295.438 82.125C296.729 80.4167 297.833 78.6875 298.75 76.9375C299.708 75.1875 300.417 73.7708 300.875 72.6875C301.083 72.2292 301.375 71.875 301.75 71.625C302.167 71.375 302.604 71.25 303.062 71.25C303.771 71.25 304.333 71.5208 304.75 72.0625C305.208 72.5625 305.438 73.1042 305.438 73.6875C305.438 73.9792 305.375 74.2708 305.25 74.5625C305.083 74.8958 304.75 75.5833 304.25 76.625C303.75 77.6667 303.083 78.875 302.25 80.25C301.458 81.5833 300.521 83.0208 299.438 84.5625C298.354 86.0625 297.146 87.4375 295.812 88.6875C294.521 89.9375 293.104 90.9792 291.562 91.8125C290.062 92.6458 288.479 93.0625 286.812 93.0625C284.938 93.0625 283.417 92.7083 282.25 92C281.083 91.25 280.167 90.2917 279.5 89.125C278.833 87.9167 278.375 86.6042 278.125 85.1875C277.917 83.7292 277.812 82.2708 277.812 80.8125C277.812 80.1875 277.833 79.4792 277.875 78.6875C277.958 77.8958 278.042 77.0625 278.125 76.1875C278.25 75.3125 278.333 74.4375 278.375 73.5625C278.458 72.6875 278.5 71.8542 278.5 71.0625C278.5 69.7292 278.292 68.8333 277.875 68.375C277.458 67.875 277.083 67.625 276.75 67.625C276.083 67.625 275.312 68.0208 274.438 68.8125C273.604 69.5625 272.708 70.5625 271.75 71.8125C270.833 73.0625 269.875 74.4792 268.875 76.0625C267.917 77.6042 267 79.1458 266.125 80.6875C265.292 82.2292 264.5 83.7083 263.75 85.125C263.042 86.5 262.479 87.6458 262.062 88.5625C261.229 90.3125 260.396 91.4792 259.562 92.0625C258.729 92.6875 257.875 93 257 93C255.792 93 254.812 92.6458 254.062 91.9375C253.354 91.1875 253 90.1458 253 88.8125C253 88.5208 253.042 87.9583 253.125 87.125C253.208 86.25 253.312 85.2292 253.438 84.0625C253.562 82.8542 253.688 81.5625 253.812 80.1875C253.938 78.8125 254.062 77.4583 254.188 76.125C254.312 74.75 254.417 73.4792 254.5 72.3125C254.583 71.1458 254.625 70.1667 254.625 69.375C254.625 68.3333 254.583 67.3333 254.5 66.375C254.417 65.4167 254.25 64.8333 254 64.625C253.625 64.75 252.958 65.5417 252 67C251.042 68.4167 249.812 70.9375 248.312 74.5625C248.104 75.0208 247.792 75.375 247.375 75.625C246.958 75.875 246.521 76 246.062 76C245.354 76 244.792 75.7708 244.375 75.3125C243.958 74.8125 243.75 74.25 243.75 73.625C243.75 73.3333 243.812 73.0208 243.938 72.6875C245.812 68.2292 247.562 64.9583 249.188 62.875C250.854 60.75 252.5 59.6875 254.125 59.6875C255.083 59.6875 255.896 59.9375 256.562 60.4375C257.229 60.8958 257.75 61.5208 258.125 62.3125C258.542 63.1042 258.833 63.9792 259 64.9375C259.208 65.8958 259.312 66.875 259.312 67.875C259.312 68.625 259.25 69.7917 259.125 71.375C259.042 72.9583 258.917 74.6667 258.75 76.5C258.583 78.2917 258.417 80.0833 258.25 81.875C258.125 83.6667 258 85.1667 257.875 86.375ZM323.625 98.125C331.458 87.9167 336.896 79.4375 339.938 72.6875C340.146 72.2292 340.417 71.8958 340.75 71.6875C341.125 71.4375 341.542 71.3125 342 71.3125C342.708 71.3125 343.292 71.5625 343.75 72.0625C344.208 72.5208 344.438 73.0625 344.438 73.6875C344.438 73.9792 344.375 74.2708 344.25 74.5625C342.417 78.7292 339.812 83.375 336.438 88.5C333.062 93.625 328.792 99.4167 323.625 105.875C323.625 108.5 323.646 111.125 323.688 113.75C323.729 116.375 323.75 119.25 323.75 122.375C323.75 125.5 323.667 128.583 323.5 131.625C323.375 134.708 323.125 137.625 322.75 140.375C322.375 143.167 321.854 145.729 321.188 148.062C320.562 150.438 319.729 152.479 318.688 154.188C317.688 155.938 316.458 157.292 315 158.25C313.583 159.25 311.896 159.75 309.938 159.75C307.146 159.75 305 158.688 303.5 156.562C302 154.438 301.25 151.417 301.25 147.5C301.25 145.417 301.438 143.146 301.812 140.688C302.229 138.271 302.812 135.771 303.562 133.188C304.312 130.604 305.208 127.979 306.25 125.312C307.333 122.688 308.521 120.125 309.812 117.625C311.104 115.125 312.5 112.729 314 110.438C315.542 108.146 317.167 106.062 318.875 104.188C318.917 101.271 318.938 98.375 318.938 95.5C318.979 92.625 319.042 89.9792 319.125 87.5625C317.875 89.1458 316.375 90.3958 314.625 91.3125C312.917 92.2292 311.208 92.6875 309.5 92.6875C308.042 92.6875 306.708 92.4167 305.5 91.875C304.333 91.2917 303.333 90.5 302.5 89.5C301.667 88.4583 301.021 87.25 300.562 85.875C300.104 84.5 299.875 83 299.875 81.375C299.875 78.125 300.417 75.2708 301.5 72.8125C302.625 70.3125 304.042 68.2292 305.75 66.5625C307.458 64.8958 309.333 63.6458 311.375 62.8125C313.458 61.9792 315.458 61.5625 317.375 61.5625C318.667 61.5625 319.854 61.7292 320.938 62.0625C322.021 62.3958 322.938 62.7708 323.688 63.1875C324.479 63.6042 325.083 64 325.5 64.375C325.917 64.75 326.146 64.9583 326.188 65C326.646 65.5 326.875 66.0625 326.875 66.6875C326.875 67.3125 326.646 67.875 326.188 68.375C325.729 68.8333 325.188 69.0625 324.562 69.0625C323.979 69.0625 323.417 68.8333 322.875 68.375C322.708 68.25 322.479 68.0833 322.188 67.875C321.938 67.625 321.583 67.375 321.125 67.125C320.708 66.875 320.188 66.6667 319.562 66.5C318.979 66.3333 318.271 66.25 317.438 66.25C316.188 66.25 314.812 66.5417 313.312 67.125C311.812 67.6667 310.417 68.5417 309.125 69.75C307.833 70.9583 306.75 72.5208 305.875 74.4375C305 76.3125 304.562 78.5833 304.562 81.25C304.562 83.25 305 84.875 305.875 86.125C306.75 87.3333 308.104 87.9375 309.938 87.9375C310.812 87.9375 311.729 87.6875 312.688 87.1875C313.688 86.6875 314.646 85.9167 315.562 84.875C316.479 83.8333 317.271 82.5208 317.938 80.9375C318.646 79.3542 319.146 77.4792 319.438 75.3125C319.521 74.7292 319.792 74.25 320.25 73.875C320.708 73.4583 321.25 73.25 321.875 73.25C322.583 73.25 323.125 73.5 323.5 74C323.917 74.5 324.125 75.0625 324.125 75.6875C324.125 75.7292 324.104 76.375 324.062 77.625C324.021 78.8333 323.979 80.4583 323.938 82.5C323.896 84.5417 323.833 86.9167 323.75 89.625C323.708 92.2917 323.667 95.125 323.625 98.125ZM318.875 111.812C316.917 114.521 315.146 117.458 313.562 120.625C311.979 123.833 310.625 127.062 309.5 130.312C308.375 133.562 307.5 136.708 306.875 139.75C306.292 142.833 306 145.583 306 148C306 149.542 306.125 150.771 306.375 151.688C306.667 152.604 307 153.312 307.375 153.812C307.792 154.312 308.229 154.646 308.688 154.812C309.188 154.979 309.646 155.062 310.062 155.062C311.354 155.062 312.479 154.542 313.438 153.5C314.396 152.458 315.208 151.062 315.875 149.312C316.542 147.604 317.083 145.625 317.5 143.375C317.917 141.125 318.229 138.792 318.438 136.375C318.646 134 318.792 131.625 318.875 129.25C318.958 126.875 319 124.688 319 122.688C319 120.896 319 119.104 319 117.312C319 115.521 318.958 113.688 318.875 111.812ZM390.625 29.4375C390.625 30.1042 390.396 30.6458 389.938 31.0625C389.479 31.4375 388.917 31.625 388.25 31.625H356.562V32.3125C356.562 34.8542 356.375 37.5625 356 40.4375C355.625 43.3125 355.104 46.1875 354.438 49.0625C353.812 51.8958 353.083 54.6667 352.25 57.375C351.458 60.0833 350.625 62.5833 349.75 64.875C348.917 67.1667 348.083 69.1667 347.25 70.875C346.417 72.5417 345.667 73.7917 345 74.625C345.542 76.5417 346.188 78.3333 346.938 80C347.688 81.625 348.521 83.0625 349.438 84.3125C350.396 85.5208 351.417 86.4792 352.5 87.1875C353.583 87.8958 354.75 88.25 356 88.25C357.458 88.25 358.896 87.6458 360.312 86.4375C361.771 85.1875 363.104 83.7292 364.312 82.0625C365.562 80.3542 366.646 78.6458 367.562 76.9375C368.521 75.1875 369.208 73.7917 369.625 72.75C370.042 71.75 370.771 71.25 371.812 71.25C372.521 71.25 373.083 71.5 373.5 72C373.958 72.5 374.188 73.0417 374.188 73.625C374.188 73.9167 374.125 74.2083 374 74.5C373.875 74.7917 373.562 75.4583 373.062 76.5C372.604 77.5417 371.979 78.75 371.188 80.125C370.438 81.5 369.542 82.9583 368.5 84.5C367.5 86 366.354 87.375 365.062 88.625C363.812 89.875 362.458 90.9167 361 91.75C359.542 92.5833 358 93 356.375 93C353.5 93 350.917 92.0625 348.625 90.1875C346.333 88.3125 344.375 85.6875 342.75 82.3125C341.167 78.9375 339.958 74.9375 339.125 70.3125C338.292 65.6875 337.875 60.625 337.875 55.125C337.875 53.75 337.896 52.1458 337.938 50.3125C337.979 48.4375 338.062 46.4792 338.188 44.4375C338.312 42.3542 338.5 40.2292 338.75 38.0625C339 35.8542 339.333 33.7083 339.75 31.625H317.312C316.646 31.625 316.083 31.4375 315.625 31.0625C315.167 30.6458 314.938 30.1042 314.938 29.4375C314.938 28.7708 315.167 28.25 315.625 27.875C316.083 27.4583 316.646 27.25 317.312 27.25H340.812C341.229 25.75 341.708 24.375 342.25 23.125C342.833 21.875 343.479 20.7917 344.188 19.875C344.938 18.9583 345.75 18.25 346.625 17.75C347.542 17.2083 348.542 16.9375 349.625 16.9375C350.667 16.9375 351.562 17.2083 352.312 17.75C353.104 18.25 353.771 18.9583 354.312 19.875C354.854 20.7917 355.271 21.875 355.562 23.125C355.896 24.375 356.146 25.75 356.312 27.25H388.25C388.917 27.25 389.479 27.4583 389.938 27.875C390.396 28.25 390.625 28.7708 390.625 29.4375ZM343.562 68.375C344.812 65.625 345.938 62.6667 346.938 59.5C347.979 56.2917 348.854 53.0625 349.562 49.8125C350.312 46.5625 350.875 43.375 351.25 40.25C351.667 37.125 351.875 34.25 351.875 31.625H344.5C343.917 34.2083 343.438 37.4167 343.062 41.25C342.729 45.0417 342.562 49.6667 342.562 55.125C342.562 58.1667 342.646 60.7292 342.812 62.8125C342.979 64.8542 343.229 66.7083 343.562 68.375ZM349.375 21.625C349 21.625 348.458 22.0417 347.75 22.875C347.042 23.6667 346.333 25.125 345.625 27.25H351.625C351.417 25.5 351.104 24.125 350.688 23.125C350.312 22.125 349.875 21.625 349.375 21.625ZM344.562 72.875V72.9375V72.875ZM374.812 86.6875C375.479 85.2708 376.25 83.75 377.125 82.125C378 80.4583 378.938 78.7708 379.938 77.0625C380.938 75.3125 382 73.5833 383.125 71.875C384.25 70.1667 385.417 68.5625 386.625 67.0625C387.833 65.6042 389.042 64.5625 390.25 63.9375C391.5 63.2708 392.667 62.9375 393.75 62.9375C394.833 62.9375 395.771 63.1667 396.562 63.625C397.396 64.0417 398.062 64.625 398.562 65.375C399.104 66.125 399.5 67 399.75 68C400.042 69 400.188 70.0833 400.188 71.25C400.188 72.2083 400.083 73.5 399.875 75.125C399.708 76.7083 399.625 78.375 399.625 80.125C399.625 81.125 399.667 82.125 399.75 83.125C399.875 84.0833 400.062 84.9583 400.312 85.75C400.604 86.5 401.021 87.125 401.562 87.625C402.104 88.0833 402.812 88.3125 403.688 88.3125C404.688 88.3125 405.688 88.0417 406.688 87.5C407.688 86.9167 408.667 86.1667 409.625 85.25C410.583 84.2917 411.5 83.25 412.375 82.125C413.25 80.9583 414.042 79.8125 414.75 78.6875C415.458 77.5208 416.083 76.4167 416.625 75.375C417.167 74.2917 417.604 73.3958 417.938 72.6875C418.354 71.7292 419.083 71.25 420.125 71.25C420.833 71.25 421.396 71.5 421.812 72C422.229 72.5 422.438 73.0417 422.438 73.625C422.438 73.9583 422.375 74.2708 422.25 74.5625C422.083 74.8958 421.75 75.5833 421.25 76.625C420.792 77.6667 420.146 78.875 419.312 80.25C418.521 81.625 417.583 83.0625 416.5 84.5625C415.417 86.0625 414.208 87.4583 412.875 88.75C411.583 90 410.167 91.0417 408.625 91.875C407.125 92.6667 405.542 93.0625 403.875 93.0625C401.958 93.0625 400.417 92.6667 399.25 91.875C398.083 91.0417 397.167 90 396.5 88.75C395.875 87.5 395.438 86.1042 395.188 84.5625C394.979 83.0208 394.875 81.5208 394.875 80.0625C394.875 79.3125 394.896 78.5208 394.938 77.6875C395.021 76.8125 395.104 75.9583 395.188 75.125C395.271 74.2917 395.333 73.5208 395.375 72.8125C395.458 72.0625 395.5 71.4375 395.5 70.9375C395.5 69.6458 395.312 68.7708 394.938 68.3125C394.604 67.8542 394.208 67.625 393.75 67.625C393.083 67.625 392.312 68.0208 391.438 68.8125C390.604 69.5625 389.708 70.5625 388.75 71.8125C387.833 73.0625 386.896 74.4792 385.938 76.0625C385.021 77.6042 384.125 79.1458 383.25 80.6875C382.375 82.2292 381.583 83.7083 380.875 85.125C380.167 86.5 379.583 87.6458 379.125 88.5625C378.25 90.3125 377.354 91.4792 376.438 92.0625C375.562 92.6875 374.771 93 374.062 93C372.771 93 371.771 92.5 371.062 91.5C370.396 90.4583 370.062 89.2083 370.062 87.75V83.8125C370.062 75.9375 370.062 68.4375 370.062 61.3125C370.104 54.1458 370.208 47.5 370.375 41.375C370.583 35.2083 370.896 29.6458 371.312 24.6875C371.771 19.6875 372.438 15.4375 373.312 11.9375C374.188 8.39583 375.292 5.66667 376.625 3.75C378 1.83333 379.708 0.875 381.75 0.875C383.5 0.875 384.979 1.35417 386.188 2.3125C387.396 3.27083 388.375 4.58333 389.125 6.25C389.875 7.875 390.417 9.79167 390.75 12C391.083 14.1667 391.25 16.4583 391.25 18.875C391.25 23.7917 390.792 28.625 389.875 33.375C389 38.0833 387.812 42.6875 386.312 47.1875C384.812 51.6875 383.062 56.0833 381.062 60.375C379.062 64.625 376.958 68.7708 374.75 72.8125C374.75 73.5625 374.75 74.4583 374.75 75.5C374.75 76.5417 374.75 77.5833 374.75 78.625C374.75 79.6667 374.75 80.6458 374.75 81.5625C374.75 82.4792 374.75 83.2083 374.75 83.75L374.812 86.6875ZM374.812 63.625C376.562 59.7917 378.146 56.0625 379.562 52.4375C381.021 48.7708 382.25 45.125 383.25 41.5C384.292 37.875 385.104 34.2083 385.688 30.5C386.271 26.75 386.562 22.8542 386.562 18.8125C386.562 18.1458 386.521 17.0833 386.438 15.625C386.396 14.1667 386.208 12.6875 385.875 11.1875C385.583 9.6875 385.104 8.375 384.438 7.25C383.812 6.125 382.917 5.5625 381.75 5.5625C380.833 5.5625 380.042 6.1875 379.375 7.4375C378.708 8.64583 378.125 10.3125 377.625 12.4375C377.125 14.5208 376.708 16.9583 376.375 19.75C376.042 22.5417 375.771 25.5 375.562 28.625C375.354 31.75 375.188 34.9583 375.062 38.25C374.979 41.5417 374.917 44.75 374.875 47.875C374.833 50.9583 374.812 53.8542 374.812 56.5625C374.812 59.2708 374.812 61.625 374.812 63.625Z" fill="black"/>
</svg>
